<svg xmlns="http://www.w3.org/2000/svg" width="480" height="320" viewBox="0 0 480 320" fill="none">
  <defs>
    <filter id="softShadow" x="-20%" y="-20%" width="140%" height="140%">
      <feDropShadow dx="0" dy="4" stdDeviation="5" flood-color="#1A1A1A" flood-opacity="0.08"/>
    </filter>
  </defs>
  <circle cx="95" cy="96" r="30" fill="#F6F4F2"/>
  <circle cx="381" cy="80" r="28" fill="#F6F4F2"/>
  <circle cx="366" cy="233" r="36" fill="#F6F4F2"/>
  <path d="M122 104 C168 76 198 92 230 130 C261 167 290 161 331 121" stroke="#D9D5D1" stroke-width="2" stroke-linecap="round" stroke-dasharray="4 8"/>
  <path d="M86 185 C130 194 168 202 204 188 C245 172 286 191 333 218" stroke="#E3222A" stroke-opacity="0.68" stroke-width="2.5" stroke-linecap="round"/>
  <path d="M177 244 C220 218 256 232 294 251" stroke="#D9D5D1" stroke-width="2" stroke-linecap="round" stroke-dasharray="4 8"/>
  <path d="M270 131 C294 108 314 99 340 92" stroke="#E3222A" stroke-opacity="0.72" stroke-width="2.5" stroke-linecap="round"/>
  <circle cx="122" cy="104" r="5" fill="#E3222A"/>
  <circle cx="204" cy="188" r="6" fill="#FFFFFF" stroke="#E3222A" stroke-width="3"/>
  <circle cx="270" cy="131" r="5" fill="#2B2B2B"/>
  <circle cx="333" cy="218" r="6" fill="#E3222A"/>
  <circle cx="294" cy="251" r="5" fill="#FFFFFF" stroke="#B9B4AF" stroke-width="2"/>
  <g transform="translate(73 72)" stroke="#E3222A" stroke-width="4" stroke-linecap="round" stroke-linejoin="round">
    <rect x="0" y="0" width="44" height="39" rx="8"/>
    <path d="M0 13H44"/><path d="M12 -5V6"/><path d="M32 -5V6"/>
    <path d="M12 23H13"/><path d="M22 23H23"/><path d="M32 23H33"/>
    <path d="M12 31H13"/><path d="M22 31H23"/><path d="M32 31H33"/>
  </g>
  <g transform="translate(357 55)" stroke="#E3222A" stroke-width="4" stroke-linecap="round" stroke-linejoin="round">
    <path d="M24 0C11 0 2 10 2 22c0 16 22 40 22 40s22-24 22-40C46 10 37 0 24 0Z" fill="#FFFFFF"/>
    <circle cx="24" cy="22" r="7"/>
  </g>
  <g transform="translate(330 198)" stroke="#E3222A" stroke-width="3" stroke-linecap="round">
    <circle cx="36" cy="36" r="28"/><circle cx="36" cy="36" r="20"/><circle cx="36" cy="36" r="12"/><circle cx="36" cy="36" r="4" fill="#E3222A"/>
  </g>
  <g filter="url(#softShadow)"><circle cx="214" cy="177" r="34" fill="#FFFFFF"/><circle cx="214" cy="177" r="34" stroke="#E3222A" stroke-width="3"/></g>
  <g transform="translate(195 158)" stroke="#2B2B2B" stroke-width="3.5" stroke-linecap="round" stroke-linejoin="round">
    <circle cx="11" cy="10" r="6"/><circle cx="26" cy="10" r="6"/><path d="M1 31c0-7 5-12 12-12s12 5 12 12"/><path d="M16 31c0-7 5-12 12-12s12 5 12 12"/>
  </g>
  <path d="M119 215 C145 246 163 257 186 258" stroke="#E3222A" stroke-width="3" stroke-linecap="round"/>
  <path d="M178 250 L189 258 L176 267" stroke="#E3222A" stroke-width="3" stroke-linecap="round" stroke-linejoin="round"/>
  <circle cx="55" cy="178" r="3" fill="#E3222A" opacity="0.65"/><circle cx="62" cy="202" r="2" fill="#B9B4AF"/><circle cx="145" cy="60" r="2.5" fill="#B9B4AF"/><circle cx="298" cy="56" r="3" fill="#E3222A" opacity="0.65"/><circle cx="433" cy="154" r="3" fill="#B9B4AF"/><circle cx="427" cy="273" r="2.5" fill="#E3222A" opacity="0.65"/>
</svg>
